{"asset":{"generator":"3D Builder","version":"2.0"},"scene":0,"scenes":[{"nodes":[0]}],"nodes":[{"mesh":0,"matrix":[0.99999994039535522,0,0,0,0,-1.1920928244535389E-7,-0.99999982118606567,0,0,0.99999982118606567,-1.1920928244535389E-7,0,0,-4.8732943534851074,5.8094201449421234E-7,1]}],"meshes":[{"primitives":[{"attributes":{"POSITION":0,"TEXCOORD_0":1},"mode":4,"indices":2,"material":0}]}],"materials":[{"pbrMetallicRoughness":{"baseColorFactor":[1,1,1,1],"metallicFactor":0,"roughnessFactor":1,"baseColorTexture":{"index":0,"texCoord":0}},"alphaMode":"OPAQUE"}],"textures":[{"source":0,"sampler":0}],"images":[{"uri":"831f8c61914341828e65eeaefb993526-693293.3D.jpg"}],"samplers":[{"magFilter":9729,"wrapS":10497,"wrapT":10497}],"accessors":[{"bufferView":0,"byteOffset":0,"count":540459,"componentType":5126,"type":"VEC3","min":[-0.06853562593460083,-0.087600119411945343,4.8732953071594238],"max":[0.050955664366483688,0.04181729257106781,4.8963003158569336]},{"bufferView":1,"byteOffset":0,"count":540459,"componentType":5126,"type":"VEC2"},{"bufferView":2,"byteOffset":0,"count":3186996,"componentType":5125,"type":"SCALAR"}],"bufferViews":[{"buffer":0,"byteOffset":0,"byteLength":6485508,"byteStride":12,"target":34962},{"buffer":0,"byteOffset":6485508,"byteLength":4323672,"byteStride":8,"target":34962},{"buffer":0,"byteOffset":10809180,"byteLength":12747984,"target":34963}],"buffers":[{"byteLength":23557164,"uri":"Peru.bin"}]}