{
  "accessors": [
    {
      "bufferView": 2,
      "componentType": 5126,
      "count": 604,
      "max": [
        7.2463440895080566,
        0.98055797815322876,
        0.88573199510574341
      ],
      "min": [
        5.2130718231201172,
        -0.96829897165298462,
        0.083393998444080353
      ],
      "type": "VEC3"
    },
    {
      "bufferView": 2,
      "byteOffset": 7248,
      "componentType": 5126,
      "count": 604,
      "max": [
        0.99274343252182007,
        0.99716198444366455,
        0.997935950756073
      ],
      "min": [
        -0.99435806274414062,
        -0.99912625551223755,
        -0.99658143520355225
      ],
      "type": "VEC3"
    },
    {
      "bufferView": 3,
      "componentType": 5126,
      "count": 604,
      "max": [
        0.95330959558486938,
        0.93087315559387207,
        0.99925523996353149,
        1
      ],
      "min": [
        -0.92386454343795776,
        -0.99120372533798218,
        -0.98471701145172119,
        1
      ],
      "type": "VEC4"
    },
    {
      "bufferView": 1,
      "componentType": 5126,
      "count": 604,
      "max": [
        0.99800002574920654,
        0.93760001659393311
      ],
      "min": [
        0.0020000000949949026,
        0.0019000000320374966
      ],
      "type": "VEC2"
    },
    {
      "bufferView": 0,
      "componentType": 5125,
      "count": 2010,
      "max": [
        603
      ],
      "min": [
        0
      ],
      "type": "SCALAR"
    },
    {
      "bufferView": 2,
      "byteOffset": 14496,
      "componentType": 5126,
      "count": 11950,
      "max": [
        6.953251838684082,
        0.063000001013278961,
        0.67479699850082397
      ],
      "min": [
        -6.9361791610717773,
        -0.063000001013278961,
        -1.2113820314407349
      ],
      "type": "VEC3"
    },
    {
      "bufferView": 2,
      "byteOffset": 157896,
      "componentType": 5126,
      "count": 11950,
      "max": [
        0.00030000001424923539,
        1,
        -0
      ],
      "min": [
        -9.9999997473787516e-05,
        -1,
        -0
      ],
      "type": "VEC3"
    },
    {
      "bufferView": 0,
      "byteOffset": 8040,
      "componentType": 5125,
      "count": 35316,
      "max": [
        11949
      ],
      "min": [
        0
      ],
      "type": "SCALAR"
    },
    {
      "bufferView": 2,
      "byteOffset": 301296,
      "componentType": 5126,
      "count": 11932,
      "max": [
        6.953251838684082,
        0.063000001013278961,
        0.67479699850082397
      ],
      "min": [
        -6.9361791610717773,
        -0.063000001013278961,
        -1.2113820314407349
      ],
      "type": "VEC3"
    },
    {
      "bufferView": 2,
      "byteOffset": 444480,
      "componentType": 5126,
      "count": 11932,
      "max": [
        1,
        -0,
        1
      ],
      "min": [
        -1,
        -0,
        -1
      ],
      "type": "VEC3"
    },
    {
      "bufferView": 0,
      "byteOffset": 149304,
      "componentType": 5125,
      "count": 35796,
      "max": [
        11931
      ],
      "min": [
        0
      ],
      "type": "SCALAR"
    }
  ],
  "asset": {
    "extras": {
      "author": "martinjpratt (https://sketchfab.com/martinjpratt)",
      "license": "CC-BY-4.0 (http://creativecommons.org/licenses/by/4.0/)",
      "source": "https://sketchfab.com/3d-models/logotext-4fdbe4f5c9a94fbab23f94e04b96c32b",
      "title": "LogoText"
    },
    "generator": "Sketchfab-6.3.0",
    "version": "2.0"
  },
  "bufferViews": [
    {
      "buffer": 0,
      "byteLength": 292488,
      "byteOffset": 0,
      "name": "floatBufferViews",
      "target": 34963
    },
    {
      "buffer": 0,
      "byteLength": 4832,
      "byteOffset": 292488,
      "byteStride": 8,
      "name": "floatBufferViews",
      "target": 34962
    },
    {
      "buffer": 0,
      "byteLength": 587664,
      "byteOffset": 297320,
      "byteStride": 12,
      "name": "floatBufferViews",
      "target": 34962
    },
    {
      "buffer": 0,
      "byteLength": 9664,
      "byteOffset": 884984,
      "byteStride": 16,
      "name": "floatBufferViews",
      "target": 34962
    }
  ],
  "buffers": [
    {
      "byteLength": 894648,
      "uri": "scene.bin"
    }
  ],
  "materials": [
    {
      "doubleSided": true,
      "emissiveFactor": [
        0,
        0,
        0
      ],
      "name": "02_-_Default",
      "pbrMetallicRoughness": {
        "baseColorFactor": [
          0.47058800000000001,
          0.47058800000000001,
          0.47058800000000001,
          1
        ],
        "metallicFactor": 0,
        "roughnessFactor": 1
      }
    },
    {
      "doubleSided": true,
      "emissiveFactor": [
        0,
        0,
        0
      ],
      "name": "None",
      "pbrMetallicRoughness": {
        "baseColorFactor": [
          0.80000000000000004,
          0.80000000000000004,
          0.80000000000000004,
          1
        ],
        "metallicFactor": 0,
        "roughnessFactor": 1
      }
    }
  ],
  "meshes": [
    {
      "primitives": [
        {
          "attributes": {
            "NORMAL": 1,
            "POSITION": 0,
            "TANGENT": 2,
            "TEXCOORD_0": 3
          },
          "indices": 4,
          "material": 0,
          "mode": 4
        }
      ]
    },
    {
      "primitives": [
        {
          "attributes": {
            "NORMAL": 6,
            "POSITION": 5
          },
          "indices": 7,
          "material": 1,
          "mode": 4
        }
      ]
    },
    {
      "primitives": [
        {
          "attributes": {
            "NORMAL": 9,
            "POSITION": 8
          },
          "indices": 10,
          "material": 1,
          "mode": 4
        }
      ]
    }
  ],
  "nodes": [
    {
      "children": [
        1
      ],
      "name": "RootNode (gltf orientation matrix)",
      "rotation": [
        -0.70710678118654746,
        -0,
        -0,
        0.70710678118654757
      ]
    },
    {
      "children": [
        2
      ],
      "name": "RootNode (model correction matrix)"
    },
    {
      "children": [
        3,
        4,
        5
      ],
      "name": "untitled.obj.cleaner.materialmerger.gles"
    },
    {
      "mesh": 0,
      "name": ""
    },
    {
      "mesh": 1,
      "name": ""
    },
    {
      "mesh": 2,
      "name": ""
    }
  ],
  "scene": 0,
  "scenes": [
    {
      "name": "OSG_Scene",
      "nodes": [
        0
      ]
    }
  ]
}

