{
  "accessors": [
    {
      "bufferView": 2,
      "componentType": 5126,
      "count": 56772,
      "max": [
        6.953251838684082,
        0.063000001013278961,
        1.2113820314407349
      ],
      "min": [
        -6.9361791610717773,
        -0.063000001013278961,
        -0.67479699850082397
      ],
      "type": "VEC3"
    },
    {
      "bufferView": 2,
      "byteOffset": 681264,
      "componentType": 5126,
      "count": 56772,
      "max": [
        1,
        1,
        1
      ],
      "min": [
        -1,
        -1,
        -1
      ],
      "type": "VEC3"
    },
    {
      "bufferView": 3,
      "componentType": 5126,
      "count": 56772,
      "max": [
        1,
        0.00010712748189689592,
        1,
        1
      ],
      "min": [
        -1,
        -6.6442073148209602e-05,
        -1,
        -1
      ],
      "type": "VEC4"
    },
    {
      "bufferView": 1,
      "componentType": 5126,
      "count": 56772,
      "max": [
        1,
        1
      ],
      "min": [
        0,
        0
      ],
      "type": "VEC2"
    },
    {
      "bufferView": 0,
      "componentType": 5125,
      "count": 71112,
      "max": [
        56771
      ],
      "min": [
        0
      ],
      "type": "SCALAR"
    },
    {
      "bufferView": 2,
      "byteOffset": 1362528,
      "componentType": 5126,
      "count": 606,
      "max": [
        1.2359619140625,
        0.85006356239318848,
        0.63985848426818848
      ],
      "min": [
        -0.80134105682373047,
        -1.0310375690460205,
        -0.64271450042724609
      ],
      "type": "VEC3"
    },
    {
      "bufferView": 2,
      "byteOffset": 1369800,
      "componentType": 5126,
      "count": 606,
      "max": [
        0.95196467638015747,
        0.96551722288131714,
        0.98925966024398804
      ],
      "min": [
        -0.99765413999557495,
        -0.97541821002960205,
        -0.87649679183959961
      ],
      "type": "VEC3"
    },
    {
      "bufferView": 3,
      "byteOffset": 908352,
      "componentType": 5126,
      "count": 606,
      "max": [
        0.82599055767059326,
        0.97192084789276123,
        0.93660628795623779,
        1
      ],
      "min": [
        -0.9443739652633667,
        -0.89252573251724243,
        -0.9760061502456665,
        1
      ],
      "type": "VEC4"
    },
    {
      "bufferView": 1,
      "byteOffset": 454176,
      "componentType": 5126,
      "count": 606,
      "max": [
        0.99800002574920654,
        0.93760001659393311
      ],
      "min": [
        0.0020000000949949026,
        0.0019000000320374966
      ],
      "type": "VEC2"
    },
    {
      "bufferView": 0,
      "byteOffset": 284448,
      "componentType": 5125,
      "count": 2010,
      "max": [
        605
      ],
      "min": [
        0
      ],
      "type": "SCALAR"
    },
    {
      "bufferView": 4,
      "componentType": 5126,
      "count": 718,
      "max": [
        14.958333015441895
      ],
      "min": [
        0
      ],
      "type": "SCALAR"
    },
    {
      "bufferView": 5,
      "componentType": 5126,
      "count": 718,
      "max": [
        8.1460342471473268e-08,
        8.1460342471473268e-08,
        1,
        1
      ],
      "min": [
        -4.0730171235736634e-08,
        -7.0260661289012205e-08,
        -0.86251366138458252,
        -0.5
      ],
      "type": "VEC4"
    }
  ],
  "animations": [
    {
      "channels": [
        {
          "sampler": 0,
          "target": {
            "node": 7,
            "path": "rotation"
          }
        }
      ],
      "name": "hololens_low_Untitled|hololens_low_UntitledAction",
      "samplers": [
        {
          "input": 10,
          "interpolation": "LINEAR",
          "output": 11
        }
      ]
    }
  ],
  "asset": {
    "extras": {
      "author": "martinjpratt (https://sketchfab.com/martinjpratt)",
      "license": "CC-BY-4.0 (http://creativecommons.org/licenses/by/4.0/)",
      "source": "https://sketchfab.com/3d-models/untitled-095b75d9b8664b778c082e9cef91b17b",
      "title": "Untitled"
    },
    "generator": "Sketchfab-6.4.0",
    "version": "2.0"
  },
  "bufferViews": [
    {
      "buffer": 0,
      "byteLength": 292488,
      "byteOffset": 0,
      "name": "floatBufferViews",
      "target": 34963
    },
    {
      "buffer": 0,
      "byteLength": 459024,
      "byteOffset": 292488,
      "byteStride": 8,
      "name": "floatBufferViews",
      "target": 34962
    },
    {
      "buffer": 0,
      "byteLength": 1377072,
      "byteOffset": 751512,
      "byteStride": 12,
      "name": "floatBufferViews",
      "target": 34962
    },
    {
      "buffer": 0,
      "byteLength": 918048,
      "byteOffset": 2128584,
      "byteStride": 16,
      "name": "floatBufferViews",
      "target": 34962
    },
    {
      "buffer": 0,
      "byteLength": 2872,
      "byteOffset": 3046632,
      "name": "floatBufferViews"
    },
    {
      "buffer": 0,
      "byteLength": 11488,
      "byteOffset": 3049504,
      "byteStride": 16,
      "name": "floatBufferViews"
    }
  ],
  "buffers": [
    {
      "byteLength": 3060992,
      "uri": "scene.bin"
    }
  ],
  "materials": [
    {
      "doubleSided": true,
      "emissiveFactor": [
        0,
        0,
        0
      ],
      "name": "Material.001",
      "pbrMetallicRoughness": {
        "baseColorFactor": [
          0.64000000000000001,
          0.15470900000000001,
          0.034189999999999998,
          1
        ],
        "metallicFactor": 0,
        "roughnessFactor": 0.91242345036733619
      }
    },
    {
      "doubleSided": true,
      "emissiveFactor": [
        0,
        0,
        0
      ],
      "name": "02_-_Default",
      "pbrMetallicRoughness": {
        "baseColorFactor": [
          0.33430799999999999,
          0.083693000000000004,
          0.021857000000000001,
          1
        ],
        "metallicFactor": 0,
        "roughnessFactor": 1
      }
    }
  ],
  "meshes": [
    {
      "name": "Text_Material.001_0",
      "primitives": [
        {
          "attributes": {
            "NORMAL": 1,
            "POSITION": 0,
            "TANGENT": 2,
            "TEXCOORD_0": 3
          },
          "indices": 4,
          "material": 0,
          "mode": 4
        }
      ]
    },
    {
      "name": "hololens_low_Untitled_02_-_Default_0",
      "primitives": [
        {
          "attributes": {
            "NORMAL": 6,
            "POSITION": 5,
            "TANGENT": 7,
            "TEXCOORD_0": 8
          },
          "indices": 9,
          "material": 1,
          "mode": 4
        }
      ]
    }
  ],
  "nodes": [
    {
      "children": [
        1
      ],
      "name": "RootNode (gltf orientation matrix)",
      "rotation": [
        -0.70710678118654746,
        -0,
        -0,
        0.70710678118654757
      ]
    },
    {
      "children": [
        2
      ],
      "name": "RootNode (model correction matrix)"
    },
    {
      "children": [
        3
      ],
      "matrix": [
        1,
        0,
        0,
        0,
        0,
        0,
        1,
        0,
        0,
        -1,
        0,
        0,
        0,
        0,
        0,
        1
      ],
      "name": "617fc2855ca34835b2d8d711f28e81fd.fbx"
    },
    {
      "children": [
        4
      ],
      "name": ""
    },
    {
      "children": [
        5,
        7,
        9,
        12
      ],
      "name": "RootNode"
    },
    {
      "children": [
        6
      ],
      "name": "Text",
      "rotation": [
        8.1460342471473268e-08,
        0,
        0,
        1
      ],
      "scale": [
        10,
        10,
        10
      ]
    },
    {
      "mesh": 0,
      "name": "Text_Material.001_0"
    },
    {
      "children": [
        8
      ],
      "name": "hololens_low_Untitled",
      "rotation": [
        8.1460342471473268e-08,
        0,
        0,
        1
      ],
      "scale": [
        10,
        10,
        10
      ],
      "translation": [
        60.439498901367188,
        0,
        -1.2963999509811401
      ]
    },
    {
      "mesh": 1,
      "name": "hololens_low_Untitled_02_-_Default_0"
    },
    {
      "children": [
        10
      ],
      "name": "Lamp",
      "rotation": [
        0.16907571256160736,
        0.75588035583496094,
        -0.27217131853103638,
        0.57094746828079224
      ],
      "scale": [
        100.00000762939453,
        100,
        100
      ],
      "translation": [
        407.62454223632812,
        590.38623046875,
        -100.54539489746094
      ]
    },
    {
      "children": [
        11
      ],
      "matrix": [
        1,
        0,
        0,
        0,
        0,
        2.2204460492503131e-16,
        1,
        0,
        0,
        -1,
        2.2204460492503131e-16,
        0,
        0,
        0,
        0,
        1
      ],
      "name": ""
    },
    {
      "name": ""
    },
    {
      "children": [
        13
      ],
      "name": "Camera",
      "rotation": [
        -0.21255728602409363,
        0.9047970175743103,
        -0.084389366209506989,
        0.35922172665596008
      ],
      "scale": [
        100,
        100.00000762939453,
        99.999992370605469
      ],
      "translation": [
        748.1131591796875,
        534.36651611328125,
        650.76397705078125
      ]
    },
    {
      "name": ""
    }
  ],
  "scene": 0,
  "scenes": [
    {
      "name": "OSG_Scene",
      "nodes": [
        0
      ]
    }
  ]
}

